<mxfile host="app.diagrams.net" modified="2023-09-07T01:11:55.292Z" agent="Mozilla/5.0 (Windows NT 10.0; Win64; x64) AppleWebKit/537.36 (KHTML, like Gecko) Chrome/116.0.0.0 Safari/537.36" etag="kAjoS6JI9h-5asUWuGM3" version="21.6.9" type="github">
  <diagram name="Page-1" id="MPuZe_9jA6ug4MQyvV3e">
    <mxGraphModel dx="794" dy="390" grid="1" gridSize="10" guides="1" tooltips="1" connect="1" arrows="1" fold="1" page="1" pageScale="1" pageWidth="850" pageHeight="1100" math="0" shadow="0">
      <root>
        <mxCell id="0" />
        <mxCell id="1" parent="0" />
        <mxCell id="0VOeQiOvLlylnHo7QFBb-23" style="edgeStyle=orthogonalEdgeStyle;rounded=0;orthogonalLoop=1;jettySize=auto;html=1;exitX=0;exitY=0.25;exitDx=0;exitDy=0;entryX=1;entryY=0;entryDx=0;entryDy=25;entryPerimeter=0;" edge="1" parent="1" source="0VOeQiOvLlylnHo7QFBb-1" target="0VOeQiOvLlylnHo7QFBb-10">
          <mxGeometry relative="1" as="geometry" />
        </mxCell>
        <mxCell id="0VOeQiOvLlylnHo7QFBb-1" value="User Service" style="rounded=1;whiteSpace=wrap;html=1;" vertex="1" parent="1">
          <mxGeometry x="190" y="180" width="120" height="60" as="geometry" />
        </mxCell>
        <mxCell id="0VOeQiOvLlylnHo7QFBb-19" style="edgeStyle=orthogonalEdgeStyle;rounded=0;orthogonalLoop=1;jettySize=auto;html=1;exitX=1;exitY=0.25;exitDx=0;exitDy=0;entryX=0;entryY=0.25;entryDx=0;entryDy=0;" edge="1" parent="1" source="0VOeQiOvLlylnHo7QFBb-2" target="0VOeQiOvLlylnHo7QFBb-9">
          <mxGeometry relative="1" as="geometry" />
        </mxCell>
        <mxCell id="0VOeQiOvLlylnHo7QFBb-2" value="Timeline Viewer" style="rounded=1;whiteSpace=wrap;html=1;" vertex="1" parent="1">
          <mxGeometry x="380" y="160" width="120" height="60" as="geometry" />
        </mxCell>
        <mxCell id="0VOeQiOvLlylnHo7QFBb-28" style="edgeStyle=orthogonalEdgeStyle;rounded=0;orthogonalLoop=1;jettySize=auto;html=1;exitX=0;exitY=0.5;exitDx=0;exitDy=0;entryX=1;entryY=0.5;entryDx=0;entryDy=0;entryPerimeter=0;" edge="1" parent="1" source="0VOeQiOvLlylnHo7QFBb-3" target="0VOeQiOvLlylnHo7QFBb-13">
          <mxGeometry relative="1" as="geometry" />
        </mxCell>
        <mxCell id="0VOeQiOvLlylnHo7QFBb-34" style="edgeStyle=orthogonalEdgeStyle;rounded=0;orthogonalLoop=1;jettySize=auto;html=1;exitX=0.25;exitY=1;exitDx=0;exitDy=0;entryX=0.222;entryY=-0.033;entryDx=0;entryDy=0;entryPerimeter=0;" edge="1" parent="1" source="0VOeQiOvLlylnHo7QFBb-3" target="0VOeQiOvLlylnHo7QFBb-31">
          <mxGeometry relative="1" as="geometry" />
        </mxCell>
        <mxCell id="0VOeQiOvLlylnHo7QFBb-3" value="Tweet Poster" style="rounded=1;whiteSpace=wrap;html=1;" vertex="1" parent="1">
          <mxGeometry x="920" y="160" width="120" height="60" as="geometry" />
        </mxCell>
        <mxCell id="0VOeQiOvLlylnHo7QFBb-32" style="edgeStyle=orthogonalEdgeStyle;rounded=0;orthogonalLoop=1;jettySize=auto;html=1;exitX=0.5;exitY=0;exitDx=0;exitDy=0;entryX=0.5;entryY=1;entryDx=0;entryDy=0;entryPerimeter=0;" edge="1" parent="1" source="0VOeQiOvLlylnHo7QFBb-4" target="0VOeQiOvLlylnHo7QFBb-31">
          <mxGeometry relative="1" as="geometry" />
        </mxCell>
        <mxCell id="0VOeQiOvLlylnHo7QFBb-4" value="Tweet Post Scheduler" style="rounded=1;whiteSpace=wrap;html=1;" vertex="1" parent="1">
          <mxGeometry x="920" y="380" width="120" height="60" as="geometry" />
        </mxCell>
        <mxCell id="0VOeQiOvLlylnHo7QFBb-6" value="Feed Generator" style="rounded=1;whiteSpace=wrap;html=1;" vertex="1" parent="1">
          <mxGeometry x="180" y="350" width="120" height="60" as="geometry" />
        </mxCell>
        <mxCell id="0VOeQiOvLlylnHo7QFBb-7" value="Feed Aggregator" style="rounded=1;whiteSpace=wrap;html=1;" vertex="1" parent="1">
          <mxGeometry x="240" y="430" width="120" height="60" as="geometry" />
        </mxCell>
        <mxCell id="0VOeQiOvLlylnHo7QFBb-8" value="Feed Viewer" style="rounded=1;whiteSpace=wrap;html=1;" vertex="1" parent="1">
          <mxGeometry x="450" y="380" width="120" height="60" as="geometry" />
        </mxCell>
        <mxCell id="0VOeQiOvLlylnHo7QFBb-18" style="edgeStyle=orthogonalEdgeStyle;rounded=0;orthogonalLoop=1;jettySize=auto;html=1;exitX=1;exitY=0.25;exitDx=0;exitDy=0;entryX=0;entryY=0;entryDx=0;entryDy=27.5;entryPerimeter=0;" edge="1" parent="1" source="0VOeQiOvLlylnHo7QFBb-9" target="0VOeQiOvLlylnHo7QFBb-13">
          <mxGeometry relative="1" as="geometry" />
        </mxCell>
        <mxCell id="0VOeQiOvLlylnHo7QFBb-20" style="edgeStyle=orthogonalEdgeStyle;rounded=0;orthogonalLoop=1;jettySize=auto;html=1;exitX=0;exitY=0.75;exitDx=0;exitDy=0;entryX=1;entryY=0.75;entryDx=0;entryDy=0;dashed=1;" edge="1" parent="1" source="0VOeQiOvLlylnHo7QFBb-9" target="0VOeQiOvLlylnHo7QFBb-2">
          <mxGeometry relative="1" as="geometry" />
        </mxCell>
        <mxCell id="0VOeQiOvLlylnHo7QFBb-9" value="Tweet Fetcher" style="rounded=1;whiteSpace=wrap;html=1;" vertex="1" parent="1">
          <mxGeometry x="610" y="160" width="120" height="60" as="geometry" />
        </mxCell>
        <mxCell id="0VOeQiOvLlylnHo7QFBb-25" style="edgeStyle=orthogonalEdgeStyle;rounded=0;orthogonalLoop=1;jettySize=auto;html=1;exitX=1;exitY=0.5;exitDx=0;exitDy=0;exitPerimeter=0;entryX=-0.006;entryY=0.389;entryDx=0;entryDy=0;entryPerimeter=0;dashed=1;" edge="1" parent="1" source="0VOeQiOvLlylnHo7QFBb-10" target="0VOeQiOvLlylnHo7QFBb-1">
          <mxGeometry relative="1" as="geometry">
            <Array as="points">
              <mxPoint x="170" y="205" />
              <mxPoint x="170" y="203" />
            </Array>
          </mxGeometry>
        </mxCell>
        <mxCell id="0VOeQiOvLlylnHo7QFBb-10" value="Users RDB" style="shape=cylinder3;whiteSpace=wrap;html=1;boundedLbl=1;backgroundOutline=1;size=15;" vertex="1" parent="1">
          <mxGeometry x="90" y="170" width="60" height="70" as="geometry" />
        </mxCell>
        <mxCell id="0VOeQiOvLlylnHo7QFBb-17" style="edgeStyle=orthogonalEdgeStyle;rounded=0;orthogonalLoop=1;jettySize=auto;html=1;exitX=0;exitY=0;exitDx=0;exitDy=52.5;exitPerimeter=0;entryX=0.989;entryY=0.644;entryDx=0;entryDy=0;entryPerimeter=0;dashed=1;" edge="1" parent="1" source="0VOeQiOvLlylnHo7QFBb-13" target="0VOeQiOvLlylnHo7QFBb-9">
          <mxGeometry relative="1" as="geometry">
            <Array as="points">
              <mxPoint x="750" y="203" />
              <mxPoint x="750" y="199" />
            </Array>
          </mxGeometry>
        </mxCell>
        <mxCell id="0VOeQiOvLlylnHo7QFBb-13" value="Tweet RDB" style="shape=cylinder3;whiteSpace=wrap;html=1;boundedLbl=1;backgroundOutline=1;size=15;" vertex="1" parent="1">
          <mxGeometry x="770" y="150" width="60" height="80" as="geometry" />
        </mxCell>
        <mxCell id="0VOeQiOvLlylnHo7QFBb-36" style="edgeStyle=orthogonalEdgeStyle;rounded=0;orthogonalLoop=1;jettySize=auto;html=1;exitX=0.855;exitY=0;exitDx=0;exitDy=4.35;exitPerimeter=0;entryX=0.656;entryY=1.011;entryDx=0;entryDy=0;entryPerimeter=0;" edge="1" parent="1" source="0VOeQiOvLlylnHo7QFBb-31" target="0VOeQiOvLlylnHo7QFBb-3">
          <mxGeometry relative="1" as="geometry" />
        </mxCell>
        <mxCell id="0VOeQiOvLlylnHo7QFBb-31" value="Tweet Message Queue" style="shape=cylinder3;whiteSpace=wrap;html=1;boundedLbl=1;backgroundOutline=1;size=15;" vertex="1" parent="1">
          <mxGeometry x="950" y="250" width="60" height="80" as="geometry" />
        </mxCell>
      </root>
    </mxGraphModel>
  </diagram>
</mxfile>
